<svg width="537" height="318" viewBox="0 0 537 318" fill="none" xmlns="http://www.w3.org/2000/svg">
<g clip-path="url(#clip0_1402_25279)">
<path fill-rule="evenodd" clip-rule="evenodd" d="M376.504 63.4805L377.205 63.5704C389.676 65.1686 410.27 68.3078 430.43 72.3526C450.406 76.3608 470.561 81.3706 481.755 86.8456L482.211 87.0684L482.605 87.3854C483.136 87.8121 483.745 88.4728 484.127 89.4238C484.526 90.4128 484.559 91.4179 484.369 92.2973C484.038 93.8317 483.079 94.8031 482.657 95.1974C481.694 96.0978 480.372 96.8253 479.178 97.4073C476.605 98.6606 472.675 100.144 467.603 101.811C457.382 105.169 441.84 109.485 421.552 114.374L420.616 114.6L419.669 114.427C403.577 111.503 376.372 106.355 353.814 101.647C342.55 99.2967 332.375 97.0411 325.313 95.2206C321.824 94.3209 318.917 93.4824 316.997 92.7527C316.2 92.4491 314.965 91.9507 314.035 91.1874C314.032 91.1846 314.028 91.1818 314.024 91.1783C313.738 90.9442 312.048 89.5609 312.172 87.131C312.312 84.4072 314.461 83.2676 315.04 82.9989L315.076 82.9822L315.233 82.9083C315.371 82.844 315.572 82.75 315.832 82.6295C316.351 82.3886 317.104 82.0414 318.045 81.6136C319.925 80.7583 322.56 79.5784 325.583 78.2777C331.589 75.6937 339.277 72.5682 345.64 70.593C351.513 68.7696 359.091 67.0209 365.108 65.7416C368.136 65.0978 370.806 64.5653 372.719 64.1936C373.676 64.0076 374.444 63.8617 374.976 63.762C375.241 63.7121 375.447 63.6738 375.588 63.6478L375.806 63.6076C375.806 63.6076 375.808 63.6073 376.626 68.0724L375.808 63.6073L376.504 63.4805ZM376.753 72.6655C376.722 72.6712 376.691 72.6772 376.658 72.6833C376.144 72.7798 375.394 72.9222 374.458 73.1041C372.585 73.4681 369.969 73.9899 367.005 74.6201C361.037 75.8889 353.798 77.5675 348.343 79.261C342.459 81.0877 335.132 84.0551 329.186 86.6136C329.076 86.6607 328.967 86.7078 328.858 86.7549C335.642 88.4637 345.112 90.5569 355.677 92.7619C377.694 97.3567 404.202 102.382 420.352 105.323C440.062 100.557 455.02 96.3874 464.757 93.1885C466.485 92.6206 468.028 92.0899 469.391 91.5986C458.832 87.9049 444.05 84.3454 428.636 81.2523C409.094 77.3314 389.109 74.2675 376.753 72.6655Z" fill="#FBF9F9"/>
<path fill-rule="evenodd" clip-rule="evenodd" d="M361.567 94.2571C385.953 99.7186 412.68 105.241 421.584 105.971C421.584 105.971 421.605 105.972 421.651 105.972C421.698 105.973 421.766 105.972 421.856 105.967C422.039 105.959 422.29 105.937 422.621 105.894C423.289 105.807 424.19 105.645 425.382 105.38C427.77 104.847 431.111 103.945 435.72 102.556C444.884 99.7959 458.773 95.2004 479.573 88.0238C479.957 87.8544 480.405 87.7173 480.917 87.6569C482.199 87.5065 483.297 87.9015 484.07 88.4167C485.289 89.2314 485.775 90.3827 485.893 90.6618L485.899 90.6744C486.241 91.4835 486.406 92.3958 486.505 93.0214C486.731 94.456 486.899 96.5 487.032 98.9391C487.304 103.883 487.463 111.067 487.535 119.706C487.677 137.011 487.466 160.41 487.046 183.998C486.624 207.588 485.993 231.405 485.293 249.55C484.943 258.617 484.575 266.299 484.206 271.84C484.021 274.601 483.833 276.886 483.64 278.562C483.545 279.39 483.44 280.149 483.319 280.775C483.259 281.082 483.179 281.442 483.07 281.802L483.064 281.818C482.998 282.036 482.749 282.85 482.131 283.614C478.361 288.28 460.77 302.794 421.348 303.967C405.339 304.444 378.206 299.64 355.743 294.433C344.429 291.812 334.1 289.04 326.702 286.689C323.032 285.522 319.945 284.416 317.793 283.442C316.773 282.98 315.671 282.42 314.808 281.757C314.42 281.459 313.673 280.84 313.144 279.864C312.793 279.218 312.523 278.348 312.538 277.395C302.565 217.917 308.288 127.67 312.489 88.7302C312.451 88.4765 312.433 88.2051 312.442 87.9169C312.523 85.2248 314.648 84.115 315.154 83.8893C315.807 83.599 316.376 83.533 316.548 83.5133C316.8 83.4852 317.011 83.481 317.142 83.481H322.219L322.064 84.8882C324.041 85.416 326.752 86.1035 330.038 86.9097C338.1 88.8884 349.47 91.5481 361.567 94.2571ZM321.085 94.0195C316.991 134.603 312.148 218.977 321.379 275.095C321.435 275.121 321.493 275.147 321.552 275.175C323.208 275.924 325.888 276.902 329.464 278.039C336.559 280.295 346.638 283.004 357.801 285.591C380.289 290.803 406.378 295.331 421.076 294.893C455.77 293.861 471.055 281.986 474.469 278.548C474.509 278.281 474.553 277.943 474.6 277.528C474.768 276.067 474.945 273.952 475.126 271.237C475.488 265.823 475.852 258.239 476.201 249.201C476.898 231.135 477.528 207.384 477.948 183.836C478.368 160.284 478.578 136.973 478.436 119.781C478.365 111.172 478.207 104.16 477.948 99.4353C477.924 99.0038 477.899 98.5954 477.875 98.2116C459.607 104.486 446.982 108.646 438.35 111.247C433.658 112.66 430.073 113.635 427.368 114.239C424.808 114.81 422.579 115.161 420.84 115.018C411.146 114.224 383.662 108.509 359.574 103.114C347.434 100.396 336.002 97.7224 327.865 95.7247C325.249 95.083 322.958 94.5073 321.085 94.0195Z" fill="#FBF9F9"/>
<path fill-rule="evenodd" clip-rule="evenodd" d="M418.668 298.501L416.602 110L423.426 109.925L425.492 298.427L418.668 298.501Z" fill="#FBF9F9"/>
<path fill-rule="evenodd" clip-rule="evenodd" d="M482.358 90.6163C483.28 91.549 483.584 92.9267 483.139 94.1596L465.159 144.027C464.672 145.378 463.387 146.279 461.948 146.279H450.222C448.338 146.279 446.81 144.755 446.81 142.875V139.671L419.654 112.28C418.784 111.402 418.459 110.125 418.803 108.939C419.146 107.754 420.106 106.847 421.31 106.569L447.716 100.472L478.818 89.7882C480.059 89.3616 481.436 89.6835 482.358 90.6163ZM445.435 107.986L428.804 111.827L446.414 129.589L445.435 107.986ZM452.183 106.138L453.631 138.118C453.633 138.169 453.634 138.221 453.634 138.272V139.471H459.55L474.308 98.5379L452.183 106.138Z" fill="#FBF9F9"/>
<path fill-rule="evenodd" clip-rule="evenodd" d="M458.038 106.704C459.29 106.595 460.392 107.519 460.501 108.767C460.847 112.741 461.542 122.539 461.542 129.909C461.542 131.162 460.525 132.178 459.268 132.178C458.012 132.178 456.993 131.162 456.993 129.909C456.993 122.736 456.311 113.091 455.969 109.161C455.86 107.912 456.786 106.812 458.038 106.704Z" fill="#FBF9F9"/>
<path fill-rule="evenodd" clip-rule="evenodd" d="M448.395 105.183L343.028 79.252L344.117 74.8452L449.485 100.777L448.395 105.183Z" fill="#FBF9F9"/>
<path d="M461.345 32.4587L447.157 90.3955C440.65 94.9158 434.801 91.6284 432.689 89.4192C437.082 72.6674 446.429 36.4119 448.68 25.4049C450.93 14.3979 463.401 14.5159 469.355 15.9507C469.355 15.9507 532.922 41.3935 534.446 44.4357C535.97 47.4778 530.894 54.9736 527.852 55.1558L465.777 27.7206C465.598 30.1883 462.748 31.9075 461.345 32.4587Z" fill="#FBF9F9"/>
<path fill-rule="evenodd" clip-rule="evenodd" d="M457.01 13.828C461.638 12.5243 466.66 12.9666 469.889 13.7447C469.995 13.7704 470.1 13.8037 470.202 13.8444L469.355 15.9507C470.202 13.8444 470.202 13.8444 470.202 13.8444L470.918 14.1318C471.385 14.3192 472.069 14.5944 472.94 14.9456C474.684 15.648 477.175 16.6546 480.169 17.872C486.157 20.3066 494.158 23.5853 502.21 26.96C510.257 30.3328 518.371 33.8092 524.577 36.6371C527.676 38.0489 530.329 39.3127 532.269 40.3288C533.234 40.8343 534.064 41.2998 534.697 41.7071C535.011 41.9093 535.318 42.1234 535.583 42.3438C535.784 42.5112 536.209 42.8794 536.481 43.4208C537.234 44.9246 537.045 46.6326 536.681 47.9643C536.297 49.3734 535.597 50.8121 534.778 52.0905C533.957 53.372 532.953 54.5919 531.887 55.5322C530.901 56.4009 529.53 57.3288 527.988 57.4212C527.626 57.4429 527.263 57.3776 526.931 57.2307L467.048 30.7648C466.597 31.4634 466.05 32.0445 465.531 32.5047C464.804 33.1492 464.011 33.6659 463.297 34.0482L449.366 90.9339C449.235 91.4709 448.911 91.9418 448.456 92.2574C444.671 94.8884 440.938 95.3087 437.807 94.6515C434.764 94.0133 432.376 92.3804 431.042 90.9859C430.498 90.4165 430.288 89.6061 430.488 88.8449C434.889 72.0608 444.216 35.8815 446.451 24.9512C447.785 18.4284 452.25 15.1687 457.01 13.828ZM468.665 18.1199C465.937 17.4878 461.836 17.1852 458.246 18.1962C454.72 19.1894 451.825 21.3742 450.908 25.8585C448.702 36.6517 439.76 71.3868 435.244 88.6396C436.108 89.2736 437.316 89.9105 438.743 90.2099C440.523 90.5838 442.719 90.4524 445.16 88.984L459.135 31.9199C459.311 31.2037 459.824 30.6171 460.511 30.3469C461.007 30.1522 461.83 29.7139 462.509 29.112C463.212 28.4886 463.479 27.9478 463.508 27.5572C463.561 26.8203 463.97 26.1555 464.606 25.775C465.24 25.3946 466.021 25.3463 466.698 25.6456L528.027 52.7509C528.222 52.6432 528.506 52.4555 528.874 52.1311C529.567 51.5197 530.307 50.6413 530.945 49.6458C531.585 48.6474 532.058 47.6303 532.292 46.7726C532.408 46.3471 532.451 46.011 532.451 45.7674C532.451 45.7297 532.449 45.6958 532.448 45.6655C532.387 45.6239 532.316 45.576 532.231 45.5216C531.766 45.222 531.073 44.829 530.154 44.3476C528.326 43.39 525.763 42.1671 522.688 40.7658C516.546 37.9675 508.484 34.5128 500.448 31.1447C492.417 27.7784 484.431 24.5063 478.452 22.0753C475.463 20.86 472.976 19.8551 471.237 19.1542C470.368 18.8037 469.685 18.5293 469.22 18.3425L468.665 18.1199ZM532.708 45.8647C532.708 45.8647 532.697 45.8558 532.679 45.8383C532.7 45.8561 532.708 45.8647 532.708 45.8647Z" fill="#FBF9F9"/>
<path d="M323.98 176.802L378.966 115.872L360.638 157.218H409.514L342.309 266.021L370.82 181.154L323.98 176.802Z" fill="#FBF9F9"/>
<path fill-rule="evenodd" clip-rule="evenodd" d="M379.85 114.51C380.521 114.944 380.777 115.799 380.454 116.528L363.135 155.595H409.514C410.103 155.595 410.647 155.913 410.934 156.426C411.222 156.94 411.208 157.568 410.899 158.069L343.694 266.872C343.26 267.574 342.368 267.84 341.62 267.491C340.871 267.141 340.504 266.287 340.767 265.505L368.626 182.58L323.83 178.418C323.217 178.361 322.689 177.964 322.466 177.392C322.242 176.821 322.36 176.172 322.772 175.717L377.758 114.787C378.292 114.194 379.18 114.077 379.85 114.51ZM327.356 175.486L370.971 179.538C371.466 179.585 371.912 179.853 372.183 180.269C372.454 180.684 372.52 181.2 372.362 181.67L348.348 253.151L406.601 158.84H360.638C360.088 158.84 359.575 158.562 359.275 158.103C358.975 157.643 358.928 157.063 359.15 156.561L373.358 124.512L327.356 175.486Z" fill="#FBF9F9"/>
<path d="M420.322 296.228C420.322 296.228 424.411 77.5535 420.322 134.519C416.235 191.485 424.411 285.202 381.486 290.715C397.838 296.228 410.784 296.841 420.322 296.228Z" fill="#FBF9F9"/>
<path d="M535.009 51.3056C533.073 55.276 529.546 57.5448 527.131 56.373C524.716 55.2011 524.327 51.0324 526.262 47.062C528.197 43.0915 531.724 40.8228 534.139 41.9946C536.555 43.1664 536.944 47.3351 535.009 51.3056Z" fill="#FBF9F9"/>
</g>
<path d="M123.13 44.3564L178.921 141.688L234.842 239.15H123.13H11.288L67.2088 141.688L123.13 44.3564Z" stroke="#F6FAF9" stroke-width="2" stroke-miterlimit="10"/>
<path d="M123.13 304.517L67.3386 207.446L11.6772 110.505H123.13H234.453L178.791 207.446L123.13 304.517Z" stroke="#F6FAF9" stroke-width="2" stroke-miterlimit="10"/>
<path d="M123.13 110.766L150.766 158.649L178.402 206.532H123.13H67.7278L95.3639 158.649L123.13 110.766Z" stroke="#F6FAF9" stroke-width="2" stroke-miterlimit="10"/>
<path d="M123.13 43.5732V173.914" stroke="#F6FAF9" stroke-width="2" stroke-miterlimit="10"/>
<path d="M11.1582 239.411L123.389 174.175" stroke="#F6FAF9" stroke-width="2" stroke-miterlimit="10"/>
<path d="M234.972 239.411L122.741 174.175" stroke="#F6FAF9" stroke-width="2" stroke-miterlimit="10"/>
<defs>
<clipPath id="clip0_1402_25279">
<rect width="230" height="291" fill="white" transform="translate(307 13)"/>
</clipPath>
</defs>
</svg>
